<svg width="201" height="52" viewBox="0 0 201 52" fill="none" xmlns="http://www.w3.org/2000/svg">
<g clip-path="url(#clip0_5_162)">
<path d="M94.48 35.13L96.07 51.69L110.06 51.72L113.24 35.13H94.48Z" fill="#E27556"/>
<path d="M99.57 33.36C99.57 33.36 89.4 -0.519989 99.57 3.94001C109.74 8.40001 107.19 32.28 107.19 32.28L99.57 33.36Z" fill="#809E56"/>
<path d="M106.56 32.27C106.56 32.27 104.98 -3.16 112.61 0.230004C120.24 3.62 109.52 31.83 109.52 31.83L106.56 32.27Z" fill="#558231"/>
<path d="M100.84 33.36C100.84 33.36 96.7 17.96 92.25 16.99C87.81 16.02 96.54 33.36 96.54 33.36H100.84Z" fill="#558231"/>
<path d="M100.84 33.36C100.84 33.36 99.26 9.16 107.84 11.7C116.42 14.24 107.84 32.85 107.84 32.85L100.84 33.36Z" fill="#7EB65F"/>
<path d="M89 33.36L92.25 40.9H115.15L117.05 31.32L89 33.36Z" fill="#4DBDBF"/>
</g>
<g clip-path="url(#clip1_5_162)">
<path d="M18.75 12.24L0 8L11.25 20.28L30.33 20.59L28.97 13.82L18.75 12.24Z" fill="#56564C"/>
<path d="M11.82 26.14C11.82 26.14 -8.62 48.97 18.73 50.5C46.07 52.04 30.9 26.14 30.9 26.14H11.82Z" fill="#CAD6ED"/>
<path d="M7.97999 35.96L31.63 33.91C31.63 33.91 37.68 45.59 29.38 47.41C21.08 49.22 0.339993 50.3 7.97999 35.96Z" fill="#56564C"/>
<path d="M11.41 23.23L11.81 26.15C18.17 26.15 24.53 26.15 30.9 26.15C31.77 25.78 33.76 25.1 35.98 25.74C39.21 26.68 41.58 30.04 41.8 34.15H44.23C44.23 34.15 44.4 21.2 40.19 20.81C35.99 20.41 11.41 23.23 11.41 23.23Z" fill="#56564C"/>
</g>
<g clip-path="url(#clip2_5_162)">
<path d="M164.86 34.76L167.25 45.82H197.2C193.67 45.03 191.73 41.7 192.47 39.07C193 37.18 194.9 35.72 197.2 35.42C186.42 35.2 175.64 34.98 164.86 34.76Z" fill="#CAD6ED"/>
<path d="M163.22 32.52L164.86 47.97L197.2 50.83V45.81H167.25L164.86 34.76L197.2 35.42V32.52H163.22Z" fill="#E27556"/>
<path d="M161.14 18.77L164.97 29.07L200.34 25.71C196.1 25.35 193.51 22.38 194.14 19.79C194.59 17.92 196.7 16.32 199.39 15.77C186.64 16.77 173.89 17.77 161.14 18.77Z" fill="#CAD6ED"/>
<path d="M159 16.81L162.34 31.39L200.79 30.5L200.33 25.7L164.97 29.07L161.14 18.77L199.39 15.77L199.12 13L159 16.81Z" fill="#56564C"/>
</g>
<defs>
<clipPath id="clip0_5_162">
<rect width="28.05" height="51.72" fill="white" transform="translate(89)"/>
</clipPath>
<clipPath id="clip1_5_162">
<rect width="44.24" height="42.57" fill="white" transform="translate(0 8)"/>
</clipPath>
<clipPath id="clip2_5_162">
<rect width="41.79" height="37.83" fill="white" transform="translate(159 13)"/>
</clipPath>
</defs>
</svg>
