<svg width="300" height="450" viewBox="0 0 300 450" fill="none" xmlns="http://www.w3.org/2000/svg">
<rect width="300" height="450" fill="white"/>
<g clip-path="url(#clip0_16_455)">
<path d="M300 267.406H0V450H300V267.406Z" fill="#C6E4E6"/>
</g>
<rect width="255" height="380.155" transform="translate(22 44.9002)" fill="white"/>
<path d="M276.295 424.421L276.295 45.53L22.7054 45.53L22.7054 424.421L276.295 424.421Z" fill="white" stroke="#ED714D" stroke-width="0.973" stroke-miterlimit="10" stroke-dasharray="0.93 0.93"/>
<g clip-path="url(#clip1_16_455)">
<path d="M141.48 417.13L143.07 433.69L157.06 433.72L160.24 417.13H141.48Z" fill="#E27556"/>
<path d="M146.57 415.36C146.57 415.36 136.4 381.48 146.57 385.94C156.74 390.4 154.19 414.28 154.19 414.28L146.57 415.36Z" fill="#809E56"/>
<path d="M153.56 414.27C153.56 414.27 151.98 378.84 159.61 382.23C167.24 385.62 156.52 413.83 156.52 413.83L153.56 414.27Z" fill="#558231"/>
<path d="M147.84 415.36C147.84 415.36 143.7 399.96 139.25 398.99C134.81 398.02 143.54 415.36 143.54 415.36H147.84Z" fill="#558231"/>
<path d="M147.84 415.36C147.84 415.36 146.26 391.16 154.84 393.7C163.42 396.24 154.84 414.85 154.84 414.85L147.84 415.36Z" fill="#7EB65F"/>
<path d="M136 415.36L139.25 422.9H162.15L164.05 413.32L136 415.36Z" fill="#4DBDBF"/>
</g>
<g clip-path="url(#clip2_16_455)">
<path d="M65.75 394.24L47 390L58.25 402.28L77.33 402.59L75.97 395.82L65.75 394.24Z" fill="#56564C"/>
<path d="M58.82 408.14C58.82 408.14 38.38 430.97 65.73 432.5C93.07 434.04 77.9 408.14 77.9 408.14H58.82Z" fill="#CAD6ED"/>
<path d="M54.98 417.96L78.63 415.91C78.63 415.91 84.68 427.59 76.38 429.41C68.08 431.22 47.34 432.3 54.98 417.96Z" fill="#56564C"/>
<path d="M58.41 405.23L58.81 408.15C65.17 408.15 71.53 408.15 77.9 408.15C78.77 407.78 80.76 407.1 82.98 407.74C86.21 408.68 88.58 412.04 88.8 416.15H91.23C91.23 416.15 91.4 403.2 87.19 402.81C82.99 402.41 58.41 405.23 58.41 405.23Z" fill="#56564C"/>
</g>
<g clip-path="url(#clip3_16_455)">
<path d="M211.86 416.76L214.25 427.82H244.2C240.67 427.03 238.73 423.7 239.47 421.07C240 419.18 241.9 417.72 244.2 417.42C233.42 417.2 222.64 416.98 211.86 416.76Z" fill="#CAD6ED"/>
<path d="M210.22 414.52L211.86 429.97L244.2 432.83V427.81H214.25L211.86 416.76L244.2 417.42V414.52H210.22Z" fill="#E27556"/>
<path d="M208.14 400.77L211.97 411.07L247.34 407.71C243.1 407.35 240.51 404.38 241.14 401.79C241.59 399.92 243.7 398.32 246.39 397.77C233.64 398.77 220.89 399.77 208.14 400.77Z" fill="#CAD6ED"/>
<path d="M206 398.81L209.34 413.39L247.79 412.5L247.33 407.7L211.97 411.07L208.14 400.77L246.39 397.77L246.12 395L206 398.81Z" fill="#56564C"/>
</g>
<g clip-path="url(#clip4_16_455)">
<path opacity="0.4" d="M60.8385 36.4145L69.5131 78.69L243.005 77.7363L251.732 29.4513L60.8385 36.4145Z" fill="#B8B9B9"/>
</g>
<g clip-path="url(#clip5_16_455)">
<path d="M53 25.9632L61.6746 68.2387L235.166 67.285L243.893 19L53 25.9632Z" fill="#F7C258"/>
<circle cx="214" cy="44" r="17" fill="white"/>
</g>
<g clip-path="url(#clip6_16_455)">
<g opacity="0.17">
<path d="M74.7956 45.2537L63.7012 49.7962L65.9743 53.2492L74.7956 45.2537Z" fill="#B8B9B9"/>
<path d="M38.6964 57.4396C35.9143 66.9436 45.7534 71.0168 45.7534 71.0168L50.9104 68.4019L43.8534 54.8248L38.6964 57.4396Z" fill="#B8B9B9"/>
<path d="M56.1183 47.3322L57.1531 49.2933L45.2275 57.4899L49.231 65.1836L62.7342 60.0545L64.4137 63.2728L69.7912 60.5406L59.9182 44.248L56.1183 47.3322Z" fill="#B8B9B9"/>
</g>
<path d="M64.1592 45.3375L76 47.0808L65.4315 41.4152L64.1592 45.3375Z" fill="#56564C"/>
<path d="M43.7151 27.0108L37.4646 40.9585L42.7541 43.2728L49.0046 29.3252L43.7151 27.0108Z" fill="#7BCDC7"/>
<path d="M47.7721 32.0621L62.7851 36.3699L57.7129 47.6674L44.2266 39.9737L47.7721 32.0621Z" fill="#4DBDBF"/>
<path d="M62.6155 34.04L55.2701 50.4331L60.8004 52.8469L67.4332 35.0122L62.6155 34.04Z" fill="#7BCDC7"/>
<path d="M43.7178 27C43.7178 27 48.4508 36.2861 37.4582 40.9459C37.4582 40.9459 34.4725 30.8385 43.7178 27Z" fill="#55BBBF"/>
</g>
<path d="M90.9659 41.017V39.4545H101.875V41.017H97.3011V54H95.5398V41.017H90.9659ZM107.216 54.2273C106.231 54.2273 105.367 53.9929 104.624 53.5241C103.885 53.0554 103.307 52.3996 102.891 51.5568C102.479 50.714 102.273 49.7292 102.273 48.6023C102.273 47.4659 102.479 46.474 102.891 45.6264C103.307 44.7789 103.885 44.1207 104.624 43.652C105.367 43.1832 106.231 42.9489 107.216 42.9489C108.201 42.9489 109.063 43.1832 109.801 43.652C110.545 44.1207 111.122 44.7789 111.534 45.6264C111.951 46.474 112.159 47.4659 112.159 48.6023C112.159 49.7292 111.951 50.714 111.534 51.5568C111.122 52.3996 110.545 53.0554 109.801 53.5241C109.063 53.9929 108.201 54.2273 107.216 54.2273ZM107.216 52.7216C107.964 52.7216 108.58 52.5298 109.062 52.1463C109.545 51.7628 109.903 51.2585 110.135 50.6335C110.367 50.0085 110.483 49.3314 110.483 48.6023C110.483 47.8731 110.367 47.1937 110.135 46.5639C109.903 45.9342 109.545 45.4252 109.062 45.0369C108.58 44.6487 107.964 44.4545 107.216 44.4545C106.468 44.4545 105.852 44.6487 105.369 45.0369C104.886 45.4252 104.529 45.9342 104.297 46.5639C104.065 47.1937 103.949 47.8731 103.949 48.6023C103.949 49.3314 104.065 50.0085 104.297 50.6335C104.529 51.2585 104.886 51.7628 105.369 52.1463C105.852 52.5298 106.468 52.7216 107.216 52.7216ZM125.059 54H120.57V39.4545H125.257C126.668 39.4545 127.876 39.7457 128.88 40.3281C129.883 40.9058 130.653 41.7367 131.188 42.821C131.723 43.9006 131.99 45.1932 131.99 46.6989C131.99 48.214 131.721 49.5185 131.181 50.6122C130.641 51.7012 129.855 52.5393 128.823 53.1264C127.791 53.7088 126.536 54 125.059 54ZM122.331 52.4375H124.945C126.148 52.4375 127.144 52.2055 127.935 51.7415C128.726 51.2775 129.315 50.617 129.703 49.7599C130.092 48.9029 130.286 47.8826 130.286 46.6989C130.286 45.5246 130.094 44.5137 129.711 43.6662C129.327 42.8139 128.754 42.1605 127.992 41.706C127.23 41.2467 126.28 41.017 125.144 41.017H122.331V52.4375ZM139.15 54.2273C138.165 54.2273 137.301 53.9929 136.557 53.5241C135.819 53.0554 135.241 52.3996 134.824 51.5568C134.412 50.714 134.206 49.7292 134.206 48.6023C134.206 47.4659 134.412 46.474 134.824 45.6264C135.241 44.7789 135.819 44.1207 136.557 43.652C137.301 43.1832 138.165 42.9489 139.15 42.9489C140.134 42.9489 140.996 43.1832 141.735 43.652C142.478 44.1207 143.056 44.7789 143.468 45.6264C143.884 46.474 144.093 47.4659 144.093 48.6023C144.093 49.7292 143.884 50.714 143.468 51.5568C143.056 52.3996 142.478 53.0554 141.735 53.5241C140.996 53.9929 140.134 54.2273 139.15 54.2273ZM139.15 52.7216C139.898 52.7216 140.513 52.5298 140.996 52.1463C141.479 51.7628 141.837 51.2585 142.069 50.6335C142.301 50.0085 142.417 49.3314 142.417 48.6023C142.417 47.8731 142.301 47.1937 142.069 46.5639C141.837 45.9342 141.479 45.4252 140.996 45.0369C140.513 44.6487 139.898 44.4545 139.15 44.4545C138.401 44.4545 137.786 44.6487 137.303 45.0369C136.82 45.4252 136.462 45.9342 136.23 46.5639C135.998 47.1937 135.882 47.8731 135.882 48.6023C135.882 49.3314 135.998 50.0085 136.23 50.6335C136.462 51.2585 136.82 51.7628 137.303 52.1463C137.786 52.5298 138.401 52.7216 139.15 52.7216ZM153.952 39.4545V54H152.276V39.4545H153.952ZM157.022 54V43.0909H158.699V54H157.022ZM157.875 41.2727C157.548 41.2727 157.266 41.1615 157.029 40.9389C156.797 40.7164 156.681 40.4489 156.681 40.1364C156.681 39.8239 156.797 39.5563 157.029 39.3338C157.266 39.1113 157.548 39 157.875 39C158.201 39 158.481 39.1113 158.713 39.3338C158.949 39.5563 159.068 39.8239 159.068 40.1364C159.068 40.4489 158.949 40.7164 158.713 40.9389C158.481 41.1615 158.201 41.2727 157.875 41.2727ZM169.496 45.5341L167.99 45.9602C167.895 45.7093 167.756 45.4654 167.571 45.2287C167.391 44.9872 167.145 44.7884 166.832 44.6321C166.52 44.4759 166.12 44.3977 165.632 44.3977C164.964 44.3977 164.408 44.5516 163.963 44.8594C163.523 45.1624 163.303 45.5483 163.303 46.017C163.303 46.4337 163.454 46.7628 163.757 47.0043C164.06 47.2457 164.534 47.447 165.178 47.608L166.797 48.0057C167.772 48.2424 168.499 48.6046 168.977 49.0923C169.455 49.5753 169.695 50.1979 169.695 50.9602C169.695 51.5852 169.515 52.1439 169.155 52.6364C168.8 53.1288 168.303 53.517 167.663 53.8011C167.024 54.0852 166.281 54.2273 165.433 54.2273C164.321 54.2273 163.4 53.9858 162.67 53.5028C161.941 53.0199 161.48 52.3144 161.286 51.3864L162.876 50.9886C163.028 51.5758 163.314 52.0161 163.736 52.3097C164.162 52.6032 164.718 52.75 165.405 52.75C166.186 52.75 166.806 52.5843 167.266 52.2528C167.73 51.9167 167.962 51.5142 167.962 51.0455C167.962 50.6667 167.829 50.3494 167.564 50.0938C167.299 49.8333 166.892 49.6392 166.342 49.5114L164.524 49.0852C163.525 48.8485 162.791 48.4815 162.322 47.9844C161.858 47.4825 161.626 46.8551 161.626 46.1023C161.626 45.4867 161.799 44.9422 162.145 44.4688C162.495 43.9953 162.971 43.6236 163.572 43.3537C164.179 43.0838 164.865 42.9489 165.632 42.9489C166.712 42.9489 167.559 43.1856 168.175 43.6591C168.795 44.1326 169.235 44.7576 169.496 45.5341ZM176.962 43.0909V44.5114H171.309V43.0909H176.962ZM172.956 40.4773H174.632V50.875C174.632 51.3485 174.701 51.7036 174.838 51.9403C174.98 52.1723 175.16 52.3286 175.378 52.4091C175.601 52.4848 175.835 52.5227 176.081 52.5227C176.266 52.5227 176.417 52.5133 176.536 52.4943C176.654 52.4706 176.749 52.4517 176.82 52.4375L177.161 53.9432C177.047 53.9858 176.889 54.0284 176.685 54.071C176.481 54.1184 176.223 54.142 175.911 54.142C175.437 54.142 174.973 54.0402 174.519 53.8366C174.069 53.633 173.695 53.3229 173.397 52.9062C173.103 52.4896 172.956 51.964 172.956 51.3295V40.4773Z" fill="black"/>
<defs>
<clipPath id="clip0_16_455">
<rect width="300" height="182.594" fill="white" transform="translate(0 267.406)"/>
</clipPath>
<clipPath id="clip1_16_455">
<rect width="28.05" height="51.72" fill="white" transform="translate(136 382)"/>
</clipPath>
<clipPath id="clip2_16_455">
<rect width="44.24" height="42.57" fill="white" transform="translate(47 390)"/>
</clipPath>
<clipPath id="clip3_16_455">
<rect width="41.79" height="37.83" fill="white" transform="translate(206 395)"/>
</clipPath>
<clipPath id="clip4_16_455">
<rect width="190.893" height="49.2387" fill="white" transform="translate(60.8385 29.4513)"/>
</clipPath>
<clipPath id="clip5_16_455">
<rect width="190.893" height="49.2387" fill="white" transform="translate(53 19)"/>
</clipPath>
<clipPath id="clip6_16_455">
<rect width="39" height="44" fill="white" transform="translate(37 27)"/>
</clipPath>
</defs>
</svg>
