<svg width="23" height="23" viewBox="0 0 23 23" fill="none" xmlns="http://www.w3.org/2000/svg">
<circle cx="11.5" cy="11.5" r="11.5" fill="#4D88BF"/>
<g clip-path="url(#clip0_38_234)">
<path fill-rule="evenodd" clip-rule="evenodd" d="M16.9078 8.75841L13.8437 6.35646L7.27281 14.4656L8.58349 15.5111L12.3961 10.802L12.8155 11.1337L9 15.8191L10.3369 16.8676L16.9078 8.75841Z" fill="white"/>
<path fill-rule="evenodd" clip-rule="evenodd" d="M6.60582 18.9585C6.46602 19.0296 6.27087 19.0059 6.16019 18.8875C6.02039 18.7927 5.96505 18.6268 6.02039 18.461L6.91165 14.8921L10.0311 17.4362L6.60582 18.9585Z" fill="white"/>
<path fill-rule="evenodd" clip-rule="evenodd" d="M17.7699 6.85403L15.5709 5.11847C15.3495 4.92892 15.0146 4.97631 14.8485 5.18955L14.2631 5.90332L17.3272 8.30527L17.8835 7.61519C18.0757 7.37825 18.0204 7.04654 17.7699 6.85403Z" fill="white"/>
</g>
<defs>
<clipPath id="clip0_38_234">
<rect width="12" height="14" fill="white" transform="translate(6 5)"/>
</clipPath>
</defs>
</svg>
