<svg width="215" height="60" viewBox="0 0 215 60" fill="none" xmlns="http://www.w3.org/2000/svg">
<g clip-path="url(#clip0_5_161)">
<path opacity="0.4" d="M23.8385 17.4145L32.5131 59.69L206.005 58.7363L214.732 10.4513L23.8385 17.4145Z" fill="#B8B9B9"/>
</g>
<g clip-path="url(#clip1_5_161)">
<path d="M16 6.96318L24.6746 49.2387L198.166 48.285L206.893 0L16 6.96318Z" fill="#F7C258"/>
<circle cx="177" cy="25" r="17" fill="white"/>
</g>
<g clip-path="url(#clip2_5_161)">
<g opacity="0.17">
<path d="M37.7956 26.2537L26.7012 30.7962L28.9743 34.2492L37.7956 26.2537Z" fill="#B8B9B9"/>
<path d="M1.69639 38.4396C-1.08569 47.9436 8.75337 52.0168 8.75337 52.0168L13.9104 49.4019L6.85342 35.8248L1.69639 38.4396Z" fill="#B8B9B9"/>
<path d="M19.1183 28.3322L20.1531 30.2933L8.22749 38.4899L12.231 46.1836L25.7342 41.0545L27.4137 44.2728L32.7912 41.5406L22.9182 25.248L19.1183 28.3322Z" fill="#B8B9B9"/>
</g>
<path d="M27.1592 26.3375L39 28.0808L28.4315 22.4152L27.1592 26.3375Z" fill="#56564C"/>
<path d="M6.71505 8.01083L0.464554 21.9585L5.75407 24.2728L12.0046 10.3252L6.71505 8.01083Z" fill="#7BCDC7"/>
<path d="M10.7721 13.0621L25.7851 17.3699L20.7129 28.6674L7.22662 20.9737L10.7721 13.0621Z" fill="#4DBDBF"/>
<path d="M25.6155 15.04L18.2701 31.4331L23.8004 33.8469L30.4332 16.0122L25.6155 15.04Z" fill="#7BCDC7"/>
<path d="M6.71784 8C6.71784 8 11.4508 17.2861 0.458166 21.9459C0.458166 21.9459 -2.52748 11.8385 6.71784 8Z" fill="#55BBBF"/>
</g>
<path d="M53.9659 22.017V20.4545H64.875V22.017H60.3011V35H58.5398V22.017H53.9659ZM70.2159 35.2273C69.2311 35.2273 68.367 34.9929 67.6236 34.5241C66.8849 34.0554 66.3073 33.3996 65.8906 32.5568C65.4787 31.714 65.2727 30.7292 65.2727 29.6023C65.2727 28.4659 65.4787 27.474 65.8906 26.6264C66.3073 25.7789 66.8849 25.1207 67.6236 24.652C68.367 24.1832 69.2311 23.9489 70.2159 23.9489C71.2008 23.9489 72.0625 24.1832 72.8011 24.652C73.5445 25.1207 74.1222 25.7789 74.5341 26.6264C74.9508 27.474 75.1591 28.4659 75.1591 29.6023C75.1591 30.7292 74.9508 31.714 74.5341 32.5568C74.1222 33.3996 73.5445 34.0554 72.8011 34.5241C72.0625 34.9929 71.2008 35.2273 70.2159 35.2273ZM70.2159 33.7216C70.964 33.7216 71.5795 33.5298 72.0625 33.1463C72.5455 32.7628 72.9029 32.2585 73.1349 31.6335C73.367 31.0085 73.483 30.3314 73.483 29.6023C73.483 28.8731 73.367 28.1937 73.1349 27.5639C72.9029 26.9342 72.5455 26.4252 72.0625 26.0369C71.5795 25.6487 70.964 25.4545 70.2159 25.4545C69.4678 25.4545 68.8523 25.6487 68.3693 26.0369C67.8864 26.4252 67.5289 26.9342 67.2969 27.5639C67.0649 28.1937 66.9489 28.8731 66.9489 29.6023C66.9489 30.3314 67.0649 31.0085 67.2969 31.6335C67.5289 32.2585 67.8864 32.7628 68.3693 33.1463C68.8523 33.5298 69.4678 33.7216 70.2159 33.7216ZM88.0586 35H83.57V20.4545H88.2575C89.6684 20.4545 90.8758 20.7457 91.8796 21.3281C92.8834 21.9058 93.6528 22.7367 94.1879 23.821C94.7229 24.9006 94.9904 26.1932 94.9904 27.6989C94.9904 29.214 94.7205 30.5185 94.1808 31.6122C93.641 32.7012 92.855 33.5393 91.8228 34.1264C90.7906 34.7088 89.5359 35 88.0586 35ZM85.3313 33.4375H87.945C89.1476 33.4375 90.1443 33.2055 90.935 32.7415C91.7257 32.2775 92.3152 31.617 92.7035 30.7599C93.0917 29.9029 93.2859 28.8826 93.2859 27.6989C93.2859 26.5246 93.0941 25.5137 92.7106 24.6662C92.3271 23.8139 91.7541 23.1605 90.9918 22.706C90.2295 22.2467 89.2802 22.017 88.1438 22.017H85.3313V33.4375ZM102.15 35.2273C101.165 35.2273 100.301 34.9929 99.5572 34.5241C98.8185 34.0554 98.2409 33.3996 97.8242 32.5568C97.4123 31.714 97.2063 30.7292 97.2063 29.6023C97.2063 28.4659 97.4123 27.474 97.8242 26.6264C98.2409 25.7789 98.8185 25.1207 99.5572 24.652C100.301 24.1832 101.165 23.9489 102.15 23.9489C103.134 23.9489 103.996 24.1832 104.735 24.652C105.478 25.1207 106.056 25.7789 106.468 26.6264C106.884 27.474 107.093 28.4659 107.093 29.6023C107.093 30.7292 106.884 31.714 106.468 32.5568C106.056 33.3996 105.478 34.0554 104.735 34.5241C103.996 34.9929 103.134 35.2273 102.15 35.2273ZM102.15 33.7216C102.898 33.7216 103.513 33.5298 103.996 33.1463C104.479 32.7628 104.837 32.2585 105.069 31.6335C105.301 31.0085 105.417 30.3314 105.417 29.6023C105.417 28.8731 105.301 28.1937 105.069 27.5639C104.837 26.9342 104.479 26.4252 103.996 26.0369C103.513 25.6487 102.898 25.4545 102.15 25.4545C101.401 25.4545 100.786 25.6487 100.303 26.0369C99.82 26.4252 99.4625 26.9342 99.2305 27.5639C98.9985 28.1937 98.8825 28.8731 98.8825 29.6023C98.8825 30.3314 98.9985 31.0085 99.2305 31.6335C99.4625 32.2585 99.82 32.7628 100.303 33.1463C100.786 33.5298 101.401 33.7216 102.15 33.7216ZM116.952 20.4545V35H115.276V20.4545H116.952ZM120.022 35V24.0909H121.699V35H120.022ZM120.875 22.2727C120.548 22.2727 120.266 22.1615 120.029 21.9389C119.797 21.7164 119.681 21.4489 119.681 21.1364C119.681 20.8239 119.797 20.5563 120.029 20.3338C120.266 20.1113 120.548 20 120.875 20C121.201 20 121.481 20.1113 121.713 20.3338C121.949 20.5563 122.068 20.8239 122.068 21.1364C122.068 21.4489 121.949 21.7164 121.713 21.9389C121.481 22.1615 121.201 22.2727 120.875 22.2727ZM132.496 26.5341L130.99 26.9602C130.895 26.7093 130.756 26.4654 130.571 26.2287C130.391 25.9872 130.145 25.7884 129.832 25.6321C129.52 25.4759 129.12 25.3977 128.632 25.3977C127.964 25.3977 127.408 25.5516 126.963 25.8594C126.523 26.1624 126.303 26.5483 126.303 27.017C126.303 27.4337 126.454 27.7628 126.757 28.0043C127.06 28.2457 127.534 28.447 128.178 28.608L129.797 29.0057C130.772 29.2424 131.499 29.6046 131.977 30.0923C132.455 30.5753 132.695 31.1979 132.695 31.9602C132.695 32.5852 132.515 33.1439 132.155 33.6364C131.8 34.1288 131.303 34.517 130.663 34.8011C130.024 35.0852 129.281 35.2273 128.433 35.2273C127.321 35.2273 126.4 34.9858 125.67 34.5028C124.941 34.0199 124.48 33.3144 124.286 32.3864L125.876 31.9886C126.028 32.5758 126.314 33.0161 126.736 33.3097C127.162 33.6032 127.718 33.75 128.405 33.75C129.186 33.75 129.806 33.5843 130.266 33.2528C130.73 32.9167 130.962 32.5142 130.962 32.0455C130.962 31.6667 130.829 31.3494 130.564 31.0938C130.299 30.8333 129.892 30.6392 129.342 30.5114L127.524 30.0852C126.525 29.8485 125.791 29.4815 125.322 28.9844C124.858 28.4825 124.626 27.8551 124.626 27.1023C124.626 26.4867 124.799 25.9422 125.145 25.4688C125.495 24.9953 125.971 24.6236 126.572 24.3537C127.179 24.0838 127.865 23.9489 128.632 23.9489C129.712 23.9489 130.559 24.1856 131.175 24.6591C131.795 25.1326 132.235 25.7576 132.496 26.5341ZM139.962 24.0909V25.5114H134.309V24.0909H139.962ZM135.956 21.4773H137.632V31.875C137.632 32.3485 137.701 32.7036 137.838 32.9403C137.98 33.1723 138.16 33.3286 138.378 33.4091C138.601 33.4848 138.835 33.5227 139.081 33.5227C139.266 33.5227 139.417 33.5133 139.536 33.4943C139.654 33.4706 139.749 33.4517 139.82 33.4375L140.161 34.9432C140.047 34.9858 139.889 35.0284 139.685 35.071C139.481 35.1184 139.223 35.142 138.911 35.142C138.437 35.142 137.973 35.0402 137.519 34.8366C137.069 34.633 136.695 34.3229 136.397 33.9062C136.103 33.4896 135.956 32.964 135.956 32.3295V21.4773Z" fill="black"/>
<defs>
<clipPath id="clip0_5_161">
<rect width="190.893" height="49.2387" fill="white" transform="translate(23.8385 10.4513)"/>
</clipPath>
<clipPath id="clip1_5_161">
<rect width="190.893" height="49.2387" fill="white" transform="translate(16)"/>
</clipPath>
<clipPath id="clip2_5_161">
<rect width="39" height="44" fill="white" transform="translate(0 8)"/>
</clipPath>
</defs>
</svg>
